# This file uses centimeters as units for non-parametric coordinates.

mtllib rock7.mtl
g default
v -0.510012 -1.594780 0.463843
v 0.490442 -1.533250 0.426937
v -0.141536 1.666667 0.833333
v 1.841909 2.433214 0.200082
v -0.513361 1.897457 -0.966428
v 1.073025 1.666667 -0.833333
v -0.619783 -1.505273 -0.658018
v 0.351824 -1.364968 -0.573084
v -0.434491 2.250000 0.000000
v 0.744180 0.000000 -0.811780
v 0.026880 -1.569764 -0.836511
v -0.686013 0.623567 -0.673979
v 0.610874 -1.591305 -0.073312
v -0.725545 -1.640039 -0.117162
v 0.014429 -1.536627 0.564039
v 0.785085 0.000000 1.125000
v 1.441532 2.731982 0.356551
v -0.484205 1.063997 1.125000
v 1.950664 2.581235 -0.070544
v 0.321723 1.944597 -1.125000
v 0.000000 0.000000 1.269537
v 1.757429 2.890359 0.000000
v 0.000000 0.000000 -1.176553
v 0.000000 -1.847822 -0.102316
v 0.833461 0.000000 0.000000
v -1.193933 0.912866 0.000000
vt 0.375000 0.000000
vt 0.375000 1.000000
vt 0.625000 0.000000
vt 0.625000 1.000000
vt 0.375000 0.250000
vt 0.625000 0.250000
vt 0.375000 0.500000
vt 0.125000 0.250000
vt 0.625000 0.500000
vt 0.875000 0.250000
vt 0.375000 0.750000
vt 0.125000 0.000000
vt 0.625000 0.750000
vt 0.875000 0.000000
vt 0.500000 0.125000
vt 0.500000 0.375000
vt 0.500000 0.625000
vt 0.500000 0.875000
vt 0.750000 0.125000
vt 0.250000 0.125000
vt 0.500000 0.000000
vt 0.500000 1.000000
vt 0.625000 0.125000
vt 0.500000 0.250000
vt 0.375000 0.125000
vt 0.625000 0.375000
vt 0.750000 0.250000
vt 0.500000 0.500000
vt 0.375000 0.375000
vt 0.250000 0.250000
vt 0.625000 0.625000
vt 0.875000 0.125000
vt 0.500000 0.750000
vt 0.375000 0.625000
vt 0.125000 0.125000
vt 0.625000 0.875000
vt 0.750000 0.000000
vt 0.375000 0.875000
vt 0.250000 0.000000
vn -0.474031 -0.271559 0.837586
vn -0.474031 -0.271559 0.837586
vn -0.474031 -0.271559 0.837586
vn -0.474031 -0.271559 0.837586
vn 0.198631 -0.422459 0.884349
vn 0.198631 -0.422459 0.884349
vn 0.198631 -0.422459 0.884349
vn 0.198631 -0.422459 0.884349
vn 0.287224 0.194783 0.937850
vn 0.287224 0.194783 0.937850
vn 0.287224 0.194783 0.937850
vn 0.287224 0.194783 0.937850
vn 0.152959 0.262351 0.952772
vn 0.152959 0.262351 0.952772
vn 0.152959 0.262351 0.952772
vn 0.152959 0.262351 0.952772
vn -0.303417 0.811238 0.499831
vn -0.303417 0.811238 0.499831
vn -0.303417 0.811238 0.499831
vn -0.303417 0.811238 0.499831
vn 0.655508 0.401171 0.639821
vn 0.655508 0.401171 0.639821
vn 0.655508 0.401171 0.639821
vn 0.655508 0.401171 0.639821
vn 0.411597 0.344412 -0.843782
vn 0.411597 0.344412 -0.843782
vn 0.411597 0.344412 -0.843782
vn 0.411597 0.344412 -0.843782
vn -0.223221 0.892345 -0.392292
vn -0.223221 0.892345 -0.392292
vn -0.223221 0.892345 -0.392292
vn -0.223221 0.892345 -0.392292
vn -0.400843 -0.006998 -0.916120
vn -0.400843 -0.006998 -0.916120
vn -0.400843 -0.006998 -0.916120
vn -0.400843 -0.006998 -0.916120
vn 0.391317 -0.062869 -0.918106
vn 0.391317 -0.062869 -0.918106
vn 0.391317 -0.062869 -0.918106
vn 0.391317 -0.062869 -0.918106
vn 0.525338 -0.227133 -0.820019
vn 0.525338 -0.227133 -0.820019
vn 0.525338 -0.227133 -0.820019
vn 0.525338 -0.227133 -0.820019
vn -0.491710 -0.095685 -0.865486
vn -0.491710 -0.095685 -0.865486
vn -0.491710 -0.095685 -0.865486
vn -0.491710 -0.095685 -0.865486
vn -0.221020 -0.920878 -0.321146
vn -0.221020 -0.920878 -0.321146
vn -0.221020 -0.920878 -0.321146
vn -0.221020 -0.920878 -0.321146
vn 0.503006 -0.762760 -0.406425
vn 0.503006 -0.762760 -0.406425
vn 0.503006 -0.762760 -0.406425
vn 0.503006 -0.762760 -0.406425
vn 0.250205 -0.916287 0.312755
vn 0.250205 -0.916287 0.312755
vn 0.250205 -0.916287 0.312755
vn 0.250205 -0.916287 0.312755
vn -0.140335 -0.944860 0.295882
vn -0.140335 -0.944860 0.295882
vn -0.140335 -0.944860 0.295882
vn -0.140335 -0.944860 0.295882
vn 0.976147 -0.188279 0.108114
vn 0.976147 -0.188279 0.108114
vn 0.976147 -0.188279 0.108114
vn 0.976147 -0.188279 0.108114
vn 0.935226 -0.210466 -0.284705
vn 0.935226 -0.210466 -0.284705
vn 0.935226 -0.210466 -0.284705
vn 0.935226 -0.210466 -0.284705
vn 0.880075 -0.307436 -0.361871
vn 0.880075 -0.307436 -0.361871
vn 0.880075 -0.307436 -0.361871
vn 0.880075 -0.307436 -0.361871
vn 0.920159 -0.386509 0.062605
vn 0.920159 -0.386509 0.062605
vn 0.920159 -0.386509 0.062605
vn 0.920159 -0.386509 0.062605
vn -0.893437 -0.092522 -0.439556
vn -0.893437 -0.092522 -0.439557
vn -0.893437 -0.092522 -0.439556
vn -0.893437 -0.092522 -0.439556
vn -0.862548 -0.145615 0.484570
vn -0.862548 -0.145615 0.484570
vn -0.862548 -0.145615 0.484570
vn -0.862548 -0.145615 0.484570
vn -0.729342 0.486678 0.480838
vn -0.729341 0.486678 0.480838
vn -0.729342 0.486678 0.480838
vn -0.729342 0.486678 0.480838
vn -0.895753 0.281205 -0.344312
vn -0.895753 0.281205 -0.344312
vn -0.895753 0.281205 -0.344312
vn -0.895753 0.281205 -0.344312
s off
g pCube1
usemtl initialShadingGroup
f 1/1/1 15/21/2 21/15/3 18/25/4
f 15/21/5 2/3/6 16/23/7 21/15/8
f 21/15/9 16/23/10 4/6/11 17/24/12
f 18/25/13 21/15/14 17/24/15 3/5/16
f 3/5/17 17/24/18 22/16/19 9/29/20
f 17/24/21 4/6/22 19/26/23 22/16/24
f 22/16/25 19/26/26 6/9/27 20/28/28
f 9/29/29 22/16/30 20/28/31 5/7/32
f 5/7/33 20/28/34 23/17/35 12/34/36
f 20/28/37 6/9/38 10/31/39 23/17/40
f 23/17/41 10/31/42 8/13/43 11/33/44
f 12/34/45 23/17/46 11/33/47 7/11/48
f 7/11/49 11/33/50 24/18/51 14/38/52
f 11/33/53 8/13/54 13/36/55 24/18/56
f 24/18/57 13/36/58 2/4/59 15/22/60
f 14/38/61 24/18/62 15/22/63 1/2/64
f 2/3/65 13/37/66 25/19/67 16/23/68
f 13/37/69 8/14/70 10/32/71 25/19/72
f 25/19/73 10/32/74 6/10/75 19/27/76
f 16/23/77 25/19/78 19/27/79 4/6/80
f 7/12/81 14/39/82 26/20/83 12/35/84
f 14/39/85 1/1/86 18/25/87 26/20/88
f 26/20/89 18/25/90 3/5/91 9/30/92
f 12/35/93 26/20/94 9/30/95 5/8/96
