# This file uses centimeters as units for non-parametric coordinates.

mtllib rock9.mtl
g default
v -1.461546 -1.005717 0.992349
v 0.215148 -0.950565 1.057428
v -0.121167 -0.879914 2.173261
v -1.078044 -0.145831 2.189807
v -1.596106 -0.138206 1.953289
v -2.026736 -0.127996 1.463610
v 2.219744 -0.596734 1.670547
v 2.010340 -0.199527 1.727913
v 1.821695 -0.193581 2.199148
v 1.321683 -0.184545 2.363914
v 1.202809 -0.499647 2.298283
v 1.343321 -0.744552 1.703650
v -1.588751 1.344297 0.781048
v -2.106290 0.581523 1.072094
v -1.220137 0.276888 1.854652
v -0.962664 0.276356 2.255441
v -0.648567 0.812286 1.969091
v -0.300637 1.711194 0.242373
v 1.660868 0.606238 1.752683
v 0.189952 1.231101 0.649143
v 1.170959 0.623141 2.228622
v 0.322508 0.324146 2.518266
v 1.414160 0.238741 2.268624
v 1.941313 0.171582 1.754044
v -1.999264 0.198816 -1.755059
v -2.601523 0.287391 -1.064981
v -1.745071 1.083045 -0.879489
v -0.849620 1.018855 -0.502310
v -0.647314 0.870590 -1.827490
v -1.273236 0.278840 -2.413736
v 1.623777 0.178408 -2.081536
v 1.111457 0.195959 -2.309399
v 0.073031 0.865692 -1.573236
v -0.130722 1.369125 -0.399346
v 0.695748 1.300707 -0.787633
v 1.846466 0.169701 0.138511
v -2.387252 -0.496560 -1.637465
v -2.955083 -0.100467 -1.674159
v -2.470477 -0.098371 -2.154072
v -1.234077 -0.095473 -3.474225
v -0.485531 -0.335766 -2.836425
v -1.185786 -0.669105 -1.594826
v 2.512467 -0.557380 0.176259
v 1.265595 -0.697992 0.166906
v 1.229690 -0.538811 -2.057099
v 1.166138 -0.160201 -2.287578
v 1.677923 -0.177476 -2.059198
v 2.446225 -0.187697 0.160661
v -1.177201 -0.637270 1.861505
v 1.839070 -0.588548 2.021074
v -1.344827 1.011794 1.496202
v 1.393002 0.652457 2.180986
v -1.292656 0.905748 -1.558682
v 0.893773 0.811841 -1.376584
v -1.960213 -0.486998 -2.052128
v 1.634265 -0.483128 -1.951834
vt 0.421870 0.962504
vt 0.421870 0.093741
vt 0.578130 0.962504
vt 0.662496 0.093741
vt 0.421870 0.156259
vt 0.578130 0.156259
vt 0.662496 0.156259
vt 0.162496 0.093741
vt 0.421870 0.462504
vt 0.578130 0.462504
vt 0.837504 0.156259
vt 0.837504 0.093741
vt 0.578130 0.787496
vt 0.421870 0.656259
vt 0.578130 0.656259
vt 0.578130 0.093741
vt 0.421870 0.287496
vt 0.578130 0.287496
vt 0.421870 0.593741
vt 0.578130 0.593741
vt 0.421870 0.787496
vt 0.337504 0.093741
vt 0.337504 0.156259
vt 0.162496 0.156259
vt 0.375000 0.971733
vt 0.346733 -0.000000
vt 0.409735 -0.000000
vt 0.409735 1.000000
vt 0.375936 0.090201
vt 0.653267 -0.000000
vt 0.625000 0.971733
vt 0.624064 0.090201
vt 0.590265 1.000000
vt 0.590265 -0.000000
vt 0.346733 0.250000
vt 0.375000 0.278267
vt 0.375936 0.159799
vt 0.417184 0.246792
vt 0.625000 0.278267
vt 0.653267 0.250000
vt 0.582816 0.246792
vt 0.624064 0.159799
vt 0.125000 0.170477
vt 0.375000 0.579523
vt 0.375000 0.471733
vt 0.153267 0.250000
vt 0.417184 0.503208
vt 0.625000 0.579523
vt 0.875000 0.170477
vt 0.582816 0.503208
vt 0.846733 0.250000
vt 0.625000 0.471733
vt 0.153267 -0.000000
vt 0.375000 0.778267
vt 0.375000 0.670477
vt 0.125000 0.079523
vt 0.417184 0.746792
vt 0.625000 0.778267
vt 0.846733 -0.000000
vt 0.582816 0.746792
vt 0.875000 0.079523
vt 0.625000 0.670477
vt 0.375000 1.000000
vt 0.375000 0.000000
vt 0.625000 0.000000
vt 0.625000 1.000000
vt 0.375000 0.250000
vt 0.625000 0.250000
vt 0.125000 0.250000
vt 0.375000 0.500000
vt 0.625000 0.500000
vt 0.875000 0.250000
vt 0.125000 0.000000
vt 0.375000 0.750000
vt 0.625000 0.750000
vt 0.875000 0.000000
vn -0.035437 -0.990529 -0.132653
vn -0.035437 -0.990529 -0.132653
vn -0.035437 -0.990529 -0.132653
vn -0.035437 -0.990529 -0.132653
vn -0.708647 -0.686251 0.163945
vn -0.708647 -0.686251 0.163945
vn -0.708647 -0.686251 0.163945
vn -0.708647 -0.686251 0.163945
vn -0.067407 -0.131306 0.989048
vn -0.067407 -0.131306 0.989048
vn -0.067407 -0.131306 0.989048
vn -0.067407 -0.131306 0.989048
vn 0.160108 -0.961795 0.222071
vn 0.160108 -0.961795 0.222071
vn 0.160108 -0.961795 0.222071
vn 0.160108 -0.961795 0.222071
vn -0.562308 0.450451 0.693472
vn -0.562308 0.450451 0.693472
vn -0.562308 0.450451 0.693472
vn -0.562308 0.450451 0.693472
vn -0.586809 0.372696 0.718855
vn -0.586809 0.372697 0.718855
vn -0.586809 0.372696 0.718855
vn -0.586809 0.372696 0.718855
vn 0.920867 0.318764 0.224484
vn 0.920867 0.318764 0.224484
vn 0.920867 0.318764 0.224484
vn 0.920867 0.318764 0.224484
vn 0.134377 -0.990757 -0.018551
vn 0.134377 -0.990757 -0.018551
vn 0.134377 -0.990757 -0.018551
vn 0.134377 -0.990757 -0.018551
vn 0.257571 0.158313 0.953202
vn 0.257571 0.158313 0.953202
vn 0.257571 0.158313 0.953202
vn 0.257571 0.158313 0.953202
vn 0.759192 0.388149 0.522463
vn 0.759192 0.388149 0.522464
vn 0.759192 0.388149 0.522463
vn 0.759192 0.388149 0.522464
vn -0.748662 0.662199 0.031603
vn -0.748662 0.662199 0.031603
vn -0.748662 0.662199 0.031603
vn -0.748662 0.662199 0.031603
vn -0.153405 0.933191 -0.324995
vn -0.153405 0.933191 -0.324995
vn -0.153405 0.933191 -0.324995
vn -0.153405 0.933191 -0.324995
vn 0.152419 0.910003 0.385567
vn 0.152419 0.910003 0.385567
vn 0.152419 0.910003 0.385567
vn 0.152419 0.910004 0.385567
vn -0.096672 0.652884 0.751264
vn -0.096672 0.652884 0.751264
vn -0.096672 0.652884 0.751264
vn -0.096672 0.652884 0.751264
vn 0.247907 0.959506 0.133756
vn 0.247907 0.959506 0.133756
vn 0.247907 0.959506 0.133756
vn 0.247907 0.959506 0.133756
vn 0.760356 0.643700 -0.086657
vn 0.760356 0.643700 -0.086657
vn 0.760356 0.643700 -0.086657
vn 0.760356 0.643700 -0.086657
vn -0.306750 0.884957 -0.350366
vn -0.306750 0.884957 -0.350366
vn -0.306750 0.884957 -0.350366
vn -0.306750 0.884957 -0.350366
vn -0.345808 0.887086 -0.305769
vn -0.345808 0.887086 -0.305769
vn -0.345808 0.887086 -0.305769
vn -0.345808 0.887086 -0.305769
vn 0.098240 0.735205 -0.670689
vn 0.098240 0.735205 -0.670689
vn 0.098240 0.735205 -0.670688
vn 0.098240 0.735205 -0.670688
vn -0.159785 0.948558 -0.273324
vn -0.159785 0.948558 -0.273324
vn -0.159785 0.948558 -0.273324
vn -0.159785 0.948558 -0.273324
vn 0.407098 0.005576 -0.913367
vn 0.407098 0.005576 -0.913367
vn 0.407098 0.005576 -0.913367
vn 0.407098 0.005576 -0.913367
vn 0.732515 0.661516 -0.160678
vn 0.732515 0.661516 -0.160678
vn 0.732515 0.661516 -0.160678
vn 0.732515 0.661516 -0.160678
vn 0.027495 -0.990398 -0.135481
vn 0.027495 -0.990398 -0.135481
vn 0.027495 -0.990398 -0.135481
vn 0.027495 -0.990398 -0.135481
vn 0.306628 -0.615841 -0.725754
vn 0.306628 -0.615841 -0.725754
vn 0.306628 -0.615841 -0.725754
vn 0.306628 -0.615841 -0.725754
vn -0.110493 -0.326724 0.938639
vn -0.110493 -0.326724 0.938639
vn -0.110493 -0.326724 0.938639
vn -0.110493 -0.326724 0.938639
vn 0.262419 0.878652 -0.398882
vn 0.262419 0.878652 -0.398882
vn 0.262419 0.878652 -0.398882
vn 0.262419 0.878652 -0.398882
vn 0.175016 0.812716 -0.555754
vn 0.175016 0.812716 -0.555754
vn 0.175016 0.812716 -0.555754
vn 0.175016 0.812716 -0.555754
vn 0.131767 -0.983554 -0.123529
vn 0.131767 -0.983554 -0.123529
vn 0.131767 -0.983554 -0.123529
vn 0.131767 -0.983554 -0.123529
vn 0.734467 0.673817 0.080805
vn 0.734467 0.673817 0.080805
vn 0.734467 0.673817 0.080805
vn 0.734467 0.673817 0.080805
vn -0.950532 0.188345 0.247011
vn -0.950532 0.188345 0.247011
vn -0.950532 0.188345 0.247011
vn -0.950532 0.188345 0.247011
vn -0.605448 -0.631081 0.484943
vn -0.605448 -0.631081 0.484943
vn -0.605448 -0.631081 0.484943
vn -0.605448 -0.631081 0.484943
vn -0.096032 -0.972411 0.212592
vn -0.096032 -0.972411 0.212592
vn -0.096032 -0.972411 0.212592
vn -0.096032 -0.972411 0.212592
vn -0.356108 -0.468333 0.808611
vn -0.356108 -0.468333 0.808611
vn -0.356108 -0.468333 0.808611
vn -0.356108 -0.468333 0.808611
vn 0.100131 -0.945935 0.308513
vn 0.100131 -0.945935 0.308513
vn 0.100131 -0.945935 0.308513
vn 0.100131 -0.945935 0.308513
vn 0.820727 0.066299 0.567461
vn 0.820727 0.066299 0.567461
vn 0.820727 0.066299 0.567461
vn 0.820727 0.066299 0.567461
vn 0.313639 -0.348045 0.883456
vn 0.313639 -0.348045 0.883456
vn 0.313639 -0.348045 0.883456
vn 0.313639 -0.348045 0.883456
vn -0.060436 0.892290 0.447398
vn -0.060436 0.892290 0.447398
vn -0.060436 0.892290 0.447398
vn -0.060436 0.892290 0.447398
vn -0.614234 0.444021 0.652351
vn -0.614234 0.444021 0.652351
vn -0.614234 0.444021 0.652351
vn -0.614234 0.444021 0.652351
vn -0.554283 0.440825 0.706005
vn -0.554283 0.440825 0.706005
vn -0.554283 0.440825 0.706005
vn -0.554283 0.440825 0.706005
vn 0.741851 0.325251 0.586403
vn 0.741851 0.325251 0.586403
vn 0.741851 0.325251 0.586403
vn 0.741851 0.325251 0.586403
vn 0.217981 0.957203 0.190384
vn 0.217981 0.957203 0.190384
vn 0.217981 0.957203 0.190384
vn 0.217981 0.957203 0.190384
vn 0.223997 0.240013 0.944574
vn 0.223996 0.240013 0.944574
vn 0.223997 0.240013 0.944574
vn 0.223997 0.240013 0.944574
vn -0.395350 0.736457 -0.548935
vn -0.395350 0.736457 -0.548935
vn -0.395350 0.736457 -0.548935
vn -0.395350 0.736457 -0.548935
vn -0.517343 0.672626 -0.529085
vn -0.517343 0.672626 -0.529085
vn -0.517343 0.672626 -0.529085
vn -0.517343 0.672626 -0.529085
vn 0.073302 0.987922 -0.136520
vn 0.073302 0.987922 -0.136520
vn 0.073302 0.987922 -0.136520
vn 0.073302 0.987922 -0.136520
vn 0.686529 0.715682 -0.128363
vn 0.686529 0.715682 -0.128363
vn 0.686529 0.715682 -0.128363
vn 0.686529 0.715682 -0.128363
vn 0.205798 0.838051 -0.505290
vn 0.205798 0.838051 -0.505290
vn 0.205798 0.838051 -0.505290
vn 0.205798 0.838051 -0.505290
vn 0.007831 0.872163 -0.489153
vn 0.007831 0.872163 -0.489153
vn 0.007831 0.872163 -0.489153
vn 0.007831 0.872163 -0.489153
vn -0.077669 -0.964464 -0.252539
vn -0.077669 -0.964464 -0.252539
vn -0.077669 -0.964464 -0.252539
vn -0.077669 -0.964464 -0.252539
vn -0.471087 -0.733712 -0.489636
vn -0.471087 -0.733712 -0.489636
vn -0.471087 -0.733712 -0.489636
vn -0.471087 -0.733712 -0.489636
vn -0.233923 -0.900212 -0.367285
vn -0.233923 -0.900212 -0.367285
vn -0.233923 -0.900212 -0.367285
vn -0.233923 -0.900212 -0.367285
vn 0.934458 -0.033299 -0.354512
vn 0.934458 -0.033299 -0.354512
vn 0.934458 -0.033299 -0.354512
vn 0.934458 -0.033299 -0.354512
vn 0.123062 -0.989257 -0.078908
vn 0.123062 -0.989257 -0.078908
vn 0.123062 -0.989257 -0.078908
vn 0.123062 -0.989257 -0.078908
vn 0.327092 -0.410697 -0.851081
vn 0.327092 -0.410697 -0.851081
vn 0.327092 -0.410697 -0.851081
vn 0.327092 -0.410697 -0.851081
s off
g pCube1
usemtl initialShadingGroup
f 2/1/1 1/25/2 37/54/3 42/21/4
f 1/26/5 6/22/6 38/8/7 37/53/8
f 4/2/9 3/27/10 11/34/11 10/16/12
f 3/28/13 2/1/14 12/3/15 11/33/16
f 6/22/17 5/29/18 15/37/19 14/23/20
f 5/29/21 4/2/22 16/5/23 15/37/24
f 8/4/25 7/30/26 43/59/27 48/12/28
f 7/31/29 12/3/30 44/13/31 43/58/32
f 10/16/33 9/32/34 23/42/35 22/6/36
f 9/32/37 8/4/38 24/7/39 23/42/40
f 14/23/41 13/35/42 27/46/43 26/24/44
f 13/36/45 18/17/46 28/9/47 27/45/48
f 18/17/49 17/38/50 21/41/51 20/18/52
f 17/38/53 16/5/54 22/6/55 21/41/56
f 20/18/57 19/39/58 35/52/59 34/10/60
f 19/40/61 24/7/62 36/11/63 35/51/64
f 26/24/65 25/43/66 39/56/67 38/8/68
f 25/44/69 30/19/70 40/14/71 39/55/72
f 30/19/73 29/47/74 33/50/75 32/20/76
f 29/47/77 28/9/78 34/10/79 33/50/80
f 32/20/81 31/48/82 47/62/83 46/15/84
f 31/49/85 36/11/86 48/12/87 47/61/88
f 42/21/89 41/57/90 45/60/91 44/13/92
f 41/57/93 40/14/94 46/15/95 45/60/96
f 4/2/97 10/16/98 22/6/99 16/5/100
f 18/17/101 20/18/102 34/10/103 28/9/104
f 30/19/105 32/20/106 46/15/107 40/14/108
f 42/21/109 44/13/110 12/3/111 2/1/112
f 8/4/113 48/12/114 36/11/115 24/7/116
f 38/8/117 6/22/118 14/23/119 26/24/120
f 5/29/121 6/22/122 1/26/123 49/64/124
f 1/25/125 2/1/126 3/28/127 49/63/128
f 3/27/129 4/2/130 5/29/131 49/64/132
f 11/33/133 12/3/134 7/31/135 50/66/136
f 7/30/137 8/4/138 9/32/139 50/65/140
f 9/32/141 10/16/142 11/34/143 50/65/144
f 17/38/145 18/17/146 13/36/147 51/67/148
f 13/35/149 14/23/150 15/37/151 51/67/152
f 15/37/153 16/5/154 17/38/155 51/67/156
f 23/42/157 24/7/158 19/40/159 52/68/160
f 19/39/161 20/18/162 21/41/163 52/68/164
f 21/41/165 22/6/166 23/42/167 52/68/168
f 29/47/169 30/19/170 25/44/171 53/70/172
f 25/43/173 26/24/174 27/46/175 53/69/176
f 27/45/177 28/9/178 29/47/179 53/70/180
f 35/51/181 36/11/182 31/49/183 54/72/184
f 31/48/185 32/20/186 33/50/187 54/71/188
f 33/50/189 34/10/190 35/52/191 54/71/192
f 41/57/193 42/21/194 37/54/195 55/74/196
f 37/53/197 38/8/198 39/56/199 55/73/200
f 39/55/201 40/14/202 41/57/203 55/74/204
f 47/61/205 48/12/206 43/59/207 56/76/208
f 43/58/209 44/13/210 45/60/211 56/75/212
f 45/60/213 46/15/214 47/62/215 56/75/216
