# This file uses centimeters as units for non-parametric coordinates.

mtllib rock2.mtl
g default
v -3.912141 -0.412141 1.700030
v -3.700030 -0.500000 1.700030
v -2.772419 -0.412141 2.631549
v -2.052598 -0.200030 3.085982
v -3.912141 -0.200030 1.912141
v -4.000000 -0.200030 1.700030
v 3.912141 -0.412141 1.700030
v 4.371497 -0.200030 0.926633
v 3.912141 -0.200030 1.912141
v 0.989626 -0.292472 3.862652
v 2.318079 -0.412141 2.534123
v 3.700030 -0.500000 1.700030
v -3.692709 0.412141 1.779028
v -4.000000 0.200030 1.284369
v -3.912141 0.200030 1.912141
v -2.052598 0.200030 3.204978
v -2.772419 0.474880 2.497271
v -3.266570 0.500000 1.489772
v 3.912141 0.412141 1.700030
v 3.387147 0.500000 1.850188
v 2.318079 0.361054 2.534123
v 0.989626 0.107588 3.666061
v 3.912141 0.200030 1.912141
v 4.371497 0.200030 0.926633
v -3.912141 0.200030 -1.912141
v -4.356223 0.200030 -0.944157
v -3.912141 0.346133 -1.550226
v -2.701429 0.500000 -1.331077
v -2.115283 0.412141 -2.649652
v -3.013204 0.200030 -2.737511
v 3.912141 0.200030 -1.912141
v -0.684260 0.200030 -3.381067
v 1.312533 0.412141 -2.449382
v 3.022408 0.500000 -1.209005
v 3.912141 0.412141 -1.700030
v 4.000000 0.200030 -0.827838
v -3.912141 -0.412141 -1.700030
v -4.000000 -0.200030 -1.700030
v -3.912141 -0.200030 -1.912141
v -3.013204 -0.200030 -2.737511
v -2.115283 -0.412141 -2.649652
v -3.700030 -0.500000 -1.700030
v 3.912141 -0.412141 -1.700030
v 3.700030 -0.500000 -1.700030
v 1.312533 -0.412141 -2.449382
v -0.684260 -0.200030 -3.553182
v 3.912141 -0.200030 -1.912141
v 4.234396 -0.200030 -0.827838
v -3.873157 -0.373157 1.873157
v 3.873157 -0.373157 1.873157
v -3.873157 0.373157 1.873157
v 3.873157 0.373157 1.873157
v -3.873157 0.373157 -1.873157
v 3.726121 0.285066 -1.847029
v -3.873157 -0.373157 -1.873157
v 3.873157 -0.373157 -1.873157
vt 0.384374 0.981252
vt 0.384374 0.074993
vt 0.615626 0.981252
vt 0.643748 0.074993
vt 0.384374 0.175007
vt 0.615626 0.175007
vt 0.643748 0.175007
vt 0.143748 0.074993
vt 0.384374 0.481252
vt 0.615626 0.481252
vt 0.856252 0.175007
vt 0.856252 0.074993
vt 0.615626 0.768748
vt 0.384374 0.675008
vt 0.615626 0.675008
vt 0.615626 0.074993
vt 0.384374 0.268748
vt 0.615626 0.268748
vt 0.384374 0.574993
vt 0.615626 0.574992
vt 0.384374 0.768748
vt 0.356252 0.074993
vt 0.356252 0.175007
vt 0.143748 0.175007
vt 0.375000 0.984887
vt 0.359887 -0.000000
vt 0.386227 -0.000000
vt 0.386227 1.000000
vt 0.373504 0.074511
vt 0.640113 -0.000000
vt 0.625000 0.984887
vt 0.626496 0.074511
vt 0.613773 1.000000
vt 0.613773 -0.000000
vt 0.359887 0.250000
vt 0.375000 0.265113
vt 0.373504 0.175489
vt 0.383586 0.247976
vt 0.625000 0.265113
vt 0.640113 0.250000
vt 0.616414 0.247976
vt 0.626496 0.175489
vt 0.125000 0.191944
vt 0.375000 0.558056
vt 0.375000 0.484887
vt 0.140113 0.250000
vt 0.383586 0.502024
vt 0.625000 0.558056
vt 0.875000 0.191944
vt 0.616414 0.502024
vt 0.859887 0.250000
vt 0.625000 0.484887
vt 0.140113 -0.000000
vt 0.375000 0.765113
vt 0.375000 0.691944
vt 0.125000 0.058056
vt 0.383586 0.747976
vt 0.625000 0.765113
vt 0.859887 -0.000000
vt 0.616414 0.747976
vt 0.875000 0.058056
vt 0.625000 0.691944
vt 0.375000 1.000000
vt 0.375000 0.000000
vt 0.625000 0.000000
vt 0.625000 1.000000
vt 0.375000 0.250000
vt 0.625000 0.250000
vt 0.125000 0.250000
vt 0.375000 0.500000
vt 0.625000 0.500000
vt 0.875000 0.250000
vt 0.125000 0.000000
vt 0.375000 0.750000
vt 0.625000 0.750000
vt 0.875000 0.000000
vn -0.382683 -0.923880 0.000000
vn -0.382683 -0.923880 0.000000
vn -0.382683 -0.923880 0.000000
vn -0.382683 -0.923880 0.000000
vn -0.923880 -0.382683 0.000000
vn -0.923880 -0.382683 0.000000
vn -0.923880 -0.382683 0.000000
vn -0.923880 -0.382683 0.000000
vn -0.025753 -0.984342 0.174379
vn -0.025753 -0.984342 0.174379
vn -0.025753 -0.984342 0.174379
vn -0.025753 -0.984342 0.174379
vn 0.000774 -0.995064 0.099231
vn 0.000774 -0.995064 0.099231
vn 0.000774 -0.995064 0.099231
vn 0.000774 -0.995064 0.099231
vn -0.973315 0.105789 0.203635
vn -0.973315 0.105789 0.203635
vn -0.973315 0.105789 0.203635
vn -0.973315 0.105789 0.203635
vn -0.548530 -0.122999 0.827035
vn -0.548530 -0.122999 0.827035
vn -0.548530 -0.122999 0.827035
vn -0.548530 -0.122999 0.827035
vn 0.478224 -0.878146 -0.012720
vn 0.478224 -0.878146 -0.012720
vn 0.478224 -0.878146 -0.012720
vn 0.478224 -0.878146 -0.012720
vn 0.382683 -0.923880 0.000000
vn 0.382683 -0.923880 0.000000
vn 0.382683 -0.923880 0.000000
vn 0.382683 -0.923880 0.000000
vn 0.519464 0.203886 0.829812
vn 0.519464 0.203886 0.829812
vn 0.519464 0.203886 0.829812
vn 0.519464 0.203886 0.829812
vn 0.906376 0.000000 0.422472
vn 0.906376 0.000000 0.422472
vn 0.906376 0.000000 0.422472
vn 0.906376 0.000000 0.422472
vn -0.426064 0.904077 0.033393
vn -0.426064 0.904077 0.033393
vn -0.426064 0.904077 0.033393
vn -0.426064 0.904077 0.033393
vn -0.146858 0.988978 -0.018870
vn -0.146858 0.988978 -0.018870
vn -0.146858 0.988978 -0.018870
vn -0.146858 0.988978 -0.018870
vn 0.006307 0.995100 0.098667
vn 0.006307 0.995101 0.098667
vn 0.006307 0.995101 0.098667
vn 0.006307 0.995100 0.098667
vn 0.007324 0.960479 0.278257
vn 0.007324 0.960479 0.278257
vn 0.007324 0.960479 0.278257
vn 0.007324 0.960479 0.278257
vn 0.120226 0.992723 -0.006789
vn 0.120226 0.992723 -0.006789
vn 0.120226 0.992723 -0.006789
vn 0.120226 0.992723 -0.006789
vn 0.617086 0.785638 -0.044475
vn 0.617086 0.785638 -0.044475
vn 0.617086 0.785638 -0.044475
vn 0.617086 0.785638 -0.044475
vn -0.911519 -0.017664 -0.410878
vn -0.911519 -0.017664 -0.410877
vn -0.911519 -0.017664 -0.410877
vn -0.911520 -0.017664 -0.410878
vn -0.676323 0.000000 -0.736605
vn -0.676323 0.000000 -0.736605
vn -0.676323 0.000000 -0.736605
vn -0.676323 0.000000 -0.736605
vn -0.024874 0.946063 -0.323025
vn -0.024874 0.946063 -0.323025
vn -0.024874 0.946063 -0.323025
vn -0.024874 0.946063 -0.323025
vn 0.002451 0.997574 -0.069578
vn 0.002451 0.997574 -0.069578
vn 0.002451 0.997574 -0.069578
vn 0.002451 0.997574 -0.069578
vn 0.314010 0.199664 -0.928187
vn 0.314010 0.199664 -0.928187
vn 0.314010 0.199664 -0.928187
vn 0.314010 0.199664 -0.928187
vn 0.944244 0.276617 -0.178570
vn 0.944244 0.276617 -0.178570
vn 0.944244 0.276617 -0.178570
vn 0.944244 0.276617 -0.178570
vn 0.001919 -0.994599 -0.103774
vn 0.001919 -0.994599 -0.103774
vn 0.001919 -0.994599 -0.103774
vn 0.001919 -0.994599 -0.103774
vn -0.029060 -0.961904 -0.271840
vn -0.029060 -0.961904 -0.271840
vn -0.029060 -0.961904 -0.271840
vn -0.029060 -0.961904 -0.271840
vn -0.195688 0.094660 0.976087
vn -0.195688 0.094660 0.976087
vn -0.195688 0.094660 0.976087
vn -0.195688 0.094660 0.976087
vn 0.000000 1.000000 -0.000000
vn 0.000000 1.000000 -0.000000
vn 0.000000 1.000000 -0.000000
vn 0.000000 1.000000 -0.000000
vn -0.292847 0.201081 -0.934776
vn -0.292847 0.201081 -0.934776
vn -0.292847 0.201081 -0.934776
vn -0.292847 0.201081 -0.934776
vn 0.000000 -1.000000 0.000000
vn 0.000000 -1.000000 0.000000
vn 0.000000 -1.000000 0.000000
vn 0.000000 -1.000000 0.000000
vn 0.950517 0.278455 -0.137771
vn 0.950517 0.278455 -0.137771
vn 0.950517 0.278455 -0.137771
vn 0.950517 0.278455 -0.137771
vn -0.902807 -0.426234 0.057137
vn -0.902807 -0.426234 0.057137
vn -0.902807 -0.426234 0.057137
vn -0.902807 -0.426234 0.057137
vn -0.887919 -0.325270 0.325269
vn -0.887919 -0.325270 0.325269
vn -0.887919 -0.325270 0.325269
vn -0.887919 -0.325270 0.325269
vn -0.292261 -0.886971 0.357584
vn -0.292261 -0.886971 0.357584
vn -0.292261 -0.886971 0.357584
vn -0.292261 -0.886971 0.357584
vn -0.544608 -0.103498 0.832280
vn -0.544608 -0.103498 0.832280
vn -0.544608 -0.103498 0.832280
vn -0.544608 -0.103498 0.832280
vn 0.221186 -0.878857 0.422715
vn 0.221186 -0.878857 0.422715
vn 0.221186 -0.878857 0.422715
vn 0.221186 -0.878857 0.422715
vn 0.846303 -0.376678 0.376676
vn 0.846303 -0.376678 0.376676
vn 0.846303 -0.376678 0.376676
vn 0.846303 -0.376678 0.376676
vn 0.288998 -0.843331 0.453070
vn 0.288998 -0.843331 0.453070
vn 0.288998 -0.843331 0.453070
vn 0.288998 -0.843331 0.453070
vn -0.143813 0.984715 0.098253
vn -0.143813 0.984715 0.098253
vn -0.143813 0.984715 0.098253
vn -0.143813 0.984715 0.098253
vn -0.710534 0.701645 -0.053241
vn -0.710534 0.701645 -0.053241
vn -0.710534 0.701645 -0.053241
vn -0.710534 0.701645 -0.053241
vn -0.489896 0.474475 0.731352
vn -0.489896 0.474475 0.731352
vn -0.489896 0.474475 0.731352
vn -0.489896 0.474475 0.731352
vn 0.846303 0.376678 0.376676
vn 0.846303 0.376678 0.376676
vn 0.846303 0.376678 0.376676
vn 0.846303 0.376678 0.376676
vn 0.206043 0.870436 0.447088
vn 0.206043 0.870436 0.447088
vn 0.206043 0.870436 0.447088
vn 0.206043 0.870436 0.447088
vn 0.311207 0.729880 0.608626
vn 0.311207 0.729880 0.608626
vn 0.311207 0.729880 0.608626
vn 0.311207 0.729880 0.608626
vn -0.285758 0.844255 -0.453405
vn -0.285758 0.844255 -0.453405
vn -0.285758 0.844255 -0.453405
vn -0.285758 0.844255 -0.453405
vn -0.724874 0.638793 -0.257878
vn -0.724874 0.638793 -0.257878
vn -0.724874 0.638793 -0.257878
vn -0.724874 0.638793 -0.257878
vn -0.077059 0.994825 -0.066215
vn -0.077059 0.994825 -0.066215
vn -0.077059 0.994825 -0.066215
vn -0.077059 0.994825 -0.066215
vn 0.943633 0.234048 -0.234047
vn 0.943633 0.234048 -0.234047
vn 0.943633 0.234048 -0.234047
vn 0.943633 0.234048 -0.234047
vn 0.183377 0.799816 -0.571548
vn 0.183377 0.799816 -0.571548
vn 0.183377 0.799816 -0.571548
vn 0.183377 0.799816 -0.571548
vn 0.071204 0.966391 -0.247018
vn 0.071204 0.966391 -0.247018
vn 0.071204 0.966391 -0.247018
vn 0.071204 0.966391 -0.247018
vn -0.222699 -0.879112 -0.421388
vn -0.222699 -0.879112 -0.421388
vn -0.222699 -0.879112 -0.421388
vn -0.222699 -0.879112 -0.421388
vn -0.887919 -0.325269 -0.325269
vn -0.887919 -0.325269 -0.325269
vn -0.887919 -0.325269 -0.325269
vn -0.887919 -0.325269 -0.325269
vn -0.285758 -0.844255 -0.453405
vn -0.285758 -0.844255 -0.453405
vn -0.285758 -0.844255 -0.453405
vn -0.285758 -0.844255 -0.453405
vn 0.922219 -0.273417 -0.273414
vn 0.922219 -0.273417 -0.273414
vn 0.922219 -0.273417 -0.273414
vn 0.922219 -0.273417 -0.273414
vn 0.141078 -0.860562 -0.489418
vn 0.141078 -0.860562 -0.489418
vn 0.141078 -0.860562 -0.489418
vn 0.141078 -0.860562 -0.489418
vn 0.185132 -0.790596 -0.583682
vn 0.185132 -0.790596 -0.583682
vn 0.185132 -0.790596 -0.583682
vn 0.185132 -0.790596 -0.583682
s off
g pCube1
usemtl initialShadingGroup
f 2/1/1 1/25/2 37/54/3 42/21/4
f 1/26/5 6/22/6 38/8/7 37/53/8
f 4/2/9 3/27/10 11/34/11 10/16/12
f 3/28/13 2/1/14 12/3/15 11/33/16
f 6/22/17 5/29/18 15/37/19 14/23/20
f 5/29/21 4/2/22 16/5/23 15/37/24
f 8/4/25 7/30/26 43/59/27 48/12/28
f 7/31/29 12/3/30 44/13/31 43/58/32
f 10/16/33 9/32/34 23/42/35 22/6/36
f 9/32/37 8/4/38 24/7/39 23/42/40
f 14/23/41 13/35/42 27/46/43 26/24/44
f 13/36/45 18/17/46 28/9/47 27/45/48
f 18/17/49 17/38/50 21/41/51 20/18/52
f 17/38/53 16/5/54 22/6/55 21/41/56
f 20/18/57 19/39/58 35/52/59 34/10/60
f 19/40/61 24/7/62 36/11/63 35/51/64
f 26/24/65 25/43/66 39/56/67 38/8/68
f 25/44/69 30/19/70 40/14/71 39/55/72
f 30/19/73 29/47/74 33/50/75 32/20/76
f 29/47/77 28/9/78 34/10/79 33/50/80
f 32/20/81 31/48/82 47/62/83 46/15/84
f 31/49/85 36/11/86 48/12/87 47/61/88
f 42/21/89 41/57/90 45/60/91 44/13/92
f 41/57/93 40/14/94 46/15/95 45/60/96
f 4/2/97 10/16/98 22/6/99 16/5/100
f 18/17/101 20/18/102 34/10/103 28/9/104
f 30/19/105 32/20/106 46/15/107 40/14/108
f 42/21/109 44/13/110 12/3/111 2/1/112
f 8/4/113 48/12/114 36/11/115 24/7/116
f 38/8/117 6/22/118 14/23/119 26/24/120
f 5/29/121 6/22/122 1/26/123 49/64/124
f 1/25/125 2/1/126 3/28/127 49/63/128
f 3/27/129 4/2/130 5/29/131 49/64/132
f 11/33/133 12/3/134 7/31/135 50/66/136
f 7/30/137 8/4/138 9/32/139 50/65/140
f 9/32/141 10/16/142 11/34/143 50/65/144
f 17/38/145 18/17/146 13/36/147 51/67/148
f 13/35/149 14/23/150 15/37/151 51/67/152
f 15/37/153 16/5/154 17/38/155 51/67/156
f 23/42/157 24/7/158 19/40/159 52/68/160
f 19/39/161 20/18/162 21/41/163 52/68/164
f 21/41/165 22/6/166 23/42/167 52/68/168
f 29/47/169 30/19/170 25/44/171 53/70/172
f 25/43/173 26/24/174 27/46/175 53/69/176
f 27/45/177 28/9/178 29/47/179 53/70/180
f 35/51/181 36/11/182 31/49/183 54/72/184
f 31/48/185 32/20/186 33/50/187 54/71/188
f 33/50/189 34/10/190 35/52/191 54/71/192
f 41/57/193 42/21/194 37/54/195 55/74/196
f 37/53/197 38/8/198 39/56/199 55/73/200
f 39/55/201 40/14/202 41/57/203 55/74/204
f 47/61/205 48/12/206 43/59/207 56/76/208
f 43/58/209 44/13/210 45/60/211 56/75/212
f 45/60/213 46/15/214 47/62/215 56/75/216
