# This file uses centimeters as units for non-parametric coordinates.

mtllib rock1.mtl
g default
v -1.111111 -0.268752 2.983127
v 1.111111 -0.556493 1.111111
v -0.429491 0.195780 0.676379
v 2.329251 1.111111 1.990442
v -1.111111 2.392200 -1.111111
v 1.111111 1.111111 -1.111111
v -1.111111 -1.111111 -1.111111
v 1.902873 -1.111111 -2.289660
v -1.500000 1.500000 0.000000
v 1.500000 0.000000 -1.500000
v 0.000000 -1.500000 -1.500000
v -1.500000 0.000000 -1.500000
v 1.500000 -1.500000 0.000000
v -1.500000 -1.500000 0.000000
v 0.000000 -1.500000 1.500000
v 1.500000 0.000000 1.500000
v 0.000000 0.695015 1.500000
v -1.500000 0.000000 1.500000
v 2.286480 1.097088 0.000000
v 0.000000 1.949806 -1.500000
v 0.000000 0.000000 2.000000
v 0.000000 2.000000 0.000000
v 0.000000 0.000000 -2.000000
v 0.000000 -1.496508 0.000000
v 2.000000 0.000000 0.000000
v -2.000000 0.000000 0.000000
vt 0.375000 0.000000
vt 0.375000 1.000000
vt 0.625000 0.000000
vt 0.625000 1.000000
vt 0.375000 0.250000
vt 0.625000 0.250000
vt 0.375000 0.500000
vt 0.125000 0.250000
vt 0.625000 0.500000
vt 0.875000 0.250000
vt 0.375000 0.750000
vt 0.125000 0.000000
vt 0.625000 0.750000
vt 0.875000 0.000000
vt 0.500000 0.125000
vt 0.500000 0.375000
vt 0.500000 0.625000
vt 0.500000 0.875000
vt 0.750000 0.125000
vt 0.250000 0.125000
vt 0.500000 0.000000
vt 0.500000 1.000000
vt 0.625000 0.125000
vt 0.500000 0.250000
vt 0.375000 0.125000
vt 0.625000 0.375000
vt 0.750000 0.250000
vt 0.500000 0.500000
vt 0.375000 0.375000
vt 0.250000 0.250000
vt 0.625000 0.625000
vt 0.875000 0.125000
vt 0.500000 0.750000
vt 0.375000 0.625000
vt 0.125000 0.125000
vt 0.625000 0.875000
vt 0.750000 0.000000
vt 0.375000 0.875000
vt 0.250000 0.000000
vn 0.501889 0.501889 0.704425
vn 0.501889 0.501889 0.704425
vn 0.501889 0.501889 0.704425
vn 0.501889 0.501889 0.704425
vn 0.425644 -0.425644 0.798532
vn 0.425644 -0.425644 0.798532
vn 0.425645 -0.425644 0.798532
vn 0.425645 -0.425644 0.798532
vn 0.002022 0.004364 0.999988
vn 0.002022 0.004364 0.999988
vn 0.002022 0.004364 0.999988
vn 0.002022 0.004364 0.999988
vn -0.405810 0.875831 0.261224
vn -0.405810 0.875831 0.261224
vn -0.405810 0.875831 0.261224
vn -0.405810 0.875831 0.261224
vn -0.528378 0.405427 0.745953
vn -0.528378 0.405427 0.745953
vn -0.528378 0.405427 0.745953
vn -0.528378 0.405427 0.745953
vn 0.062039 0.936346 0.345553
vn 0.062039 0.936346 0.345553
vn 0.062039 0.936346 0.345553
vn 0.062039 0.936346 0.345553
vn 0.464795 0.857369 -0.221100
vn 0.464795 0.857368 -0.221100
vn 0.464795 0.857369 -0.221100
vn 0.464795 0.857369 -0.221100
vn 0.025236 0.950332 0.310213
vn 0.025236 0.950332 0.310213
vn 0.025236 0.950332 0.310213
vn 0.025236 0.950332 0.310213
vn -0.281531 0.216584 -0.934790
vn -0.281531 0.216584 -0.934790
vn -0.281531 0.216584 -0.934790
vn -0.281531 0.216584 -0.934790
vn 0.392741 0.302139 -0.868600
vn 0.392741 0.302139 -0.868600
vn 0.392741 0.302139 -0.868600
vn 0.392741 0.302139 -0.868600
vn -0.095230 0.095230 -0.990890
vn -0.095230 0.095230 -0.990890
vn -0.095230 0.095230 -0.990890
vn -0.095230 0.095230 -0.990890
vn -0.348155 -0.348155 -0.870388
vn -0.348155 -0.348155 -0.870388
vn -0.348155 -0.348155 -0.870388
vn -0.348155 -0.348155 -0.870388
vn -0.168436 -0.971215 -0.168436
vn -0.168436 -0.971215 -0.168436
vn -0.168436 -0.971215 -0.168436
vn -0.168436 -0.971215 -0.168436
vn 0.091157 -0.991656 -0.091157
vn 0.091157 -0.991656 -0.091157
vn 0.091157 -0.991656 -0.091157
vn 0.091157 -0.991656 -0.091157
vn 0.363010 -0.858165 0.363010
vn 0.363010 -0.858165 0.363010
vn 0.363010 -0.858166 0.363010
vn 0.363010 -0.858165 0.363010
vn -0.276074 -0.920634 0.276074
vn -0.276074 -0.920634 0.276074
vn -0.276074 -0.920634 0.276074
vn -0.276074 -0.920634 0.276074
vn 0.798532 -0.425644 0.425644
vn 0.798532 -0.425644 0.425644
vn 0.798532 -0.425644 0.425644
vn 0.798532 -0.425644 0.425644
vn 0.999185 -0.028537 -0.028537
vn 0.999185 -0.028537 -0.028537
vn 0.999185 -0.028537 -0.028537
vn 0.999185 -0.028537 -0.028537
vn 0.834509 0.132874 -0.534733
vn 0.834509 0.132874 -0.534733
vn 0.834509 0.132874 -0.534733
vn 0.834509 0.132874 -0.534733
vn 0.875786 -0.468404 0.116605
vn 0.875786 -0.468404 0.116605
vn 0.875786 -0.468404 0.116605
vn 0.875786 -0.468404 0.116605
vn -0.870388 -0.348155 -0.348155
vn -0.870388 -0.348155 -0.348155
vn -0.870388 -0.348155 -0.348155
vn -0.870388 -0.348155 -0.348155
vn -0.932733 -0.254959 0.254959
vn -0.932734 -0.254959 0.254959
vn -0.932733 -0.254959 0.254959
vn -0.932734 -0.254959 0.254959
vn -0.365511 0.658180 0.658180
vn -0.365511 0.658180 0.658180
vn -0.365511 0.658180 0.658180
vn -0.365511 0.658180 0.658180
vn -0.941239 0.238819 -0.238819
vn -0.941239 0.238819 -0.238819
vn -0.941239 0.238819 -0.238819
vn -0.941239 0.238819 -0.238819
s off
g pCube1
usemtl blinn1SG
f 1/1/1 15/21/2 21/15/3 18/25/4
f 15/21/5 2/3/6 16/23/7 21/15/8
f 21/15/9 16/23/10 4/6/11 17/24/12
f 18/25/13 21/15/14 17/24/15 3/5/16
f 3/5/17 17/24/18 22/16/19 9/29/20
f 17/24/21 4/6/22 19/26/23 22/16/24
f 22/16/25 19/26/26 6/9/27 20/28/28
f 9/29/29 22/16/30 20/28/31 5/7/32
f 5/7/33 20/28/34 23/17/35 12/34/36
f 20/28/37 6/9/38 10/31/39 23/17/40
f 23/17/41 10/31/42 8/13/43 11/33/44
f 12/34/45 23/17/46 11/33/47 7/11/48
f 7/11/49 11/33/50 24/18/51 14/38/52
f 11/33/53 8/13/54 13/36/55 24/18/56
f 24/18/57 13/36/58 2/4/59 15/22/60
f 14/38/61 24/18/62 15/22/63 1/2/64
f 2/3/65 13/37/66 25/19/67 16/23/68
f 13/37/69 8/14/70 10/32/71 25/19/72
f 25/19/73 10/32/74 6/10/75 19/27/76
f 16/23/77 25/19/78 19/27/79 4/6/80
f 7/12/81 14/39/82 26/20/83 12/35/84
f 14/39/85 1/1/86 18/25/87 26/20/88
f 26/20/89 18/25/90 3/5/91 9/30/92
f 12/35/93 26/20/94 9/30/95 5/8/96
